<svg width="16" height="16" viewBox="0 0 16 16" fill="none" xmlns="http://www.w3.org/2000/svg">
<rect x="0.5" y="0.5" width="15" height="15" rx="7.5" stroke="white"/>
<path d="M8 2C9.42729 2 10.8078 2.50881 11.8938 3.43506C12.9797 4.36132 13.6998 5.64435 13.9249 7.05379C14.15 8.46322 13.8653 9.90673 13.1219 11.1251C12.3785 12.3435 11.225 13.257 9.86874 13.7016C8.51244 14.1461 7.04209 14.0926 5.7217 13.5506C4.4013 13.0086 3.31736 12.0137 2.66449 10.7445C2.01162 9.47528 1.83259 8.01489 2.15955 6.62555C2.4865 5.23621 3.29803 4.00893 4.44841 3.16407L8 8V2Z" fill="white" stroke="white" stroke-linejoin="round"/>
</svg>
